<svg xmlns="http://www.w3.org/2000/svg" width="900" height="984" viewBox="0 0 900 984">
<defs>
<linearGradient id="deltaGradient" x1="0%" y1="0%" x2="100%" y2="0%">
<stop offset="0%" stop-color="#D7EBDD"/>
<stop offset="35%" stop-color="#B8E19A"/>
<stop offset="55%" stop-color="#F2B959"/>
<stop offset="78%" stop-color="#CB673D"/>
<stop offset="100%" stop-color="#B82020"/>
</linearGradient>
</defs>
<rect width="900" height="984" fill="#F7F7F8"/>
<text x="36.0" y="34.0" font-size="23" font-weight="700" fill="#1A1A1A" text-anchor="start" dominant-baseline="middle">Transferabilité d&#x27;EMOTYC : TextToKids → CyberAggAdo</text>
<text x="36.0" y="66.0" font-size="14" font-weight="400" fill="#71717A" text-anchor="start" dominant-baseline="middle">Δ = performance TextToKids - performance CyberAggAdo ; couleur = amplitude absolue du delta</text>
<text x="36.0" y="101.0" font-size="14" font-weight="600" fill="#4F46E5" text-anchor="start" dominant-baseline="middle">TextToKids : 27 911 unités textuelles</text>
<text x="366.0" y="101.0" font-size="14" font-weight="600" fill="#B45309" text-anchor="start" dominant-baseline="middle">CyberAggAdo : 781 unités textuelles</text>
<rect x="36" y="132" width="735" height="760" rx="8" fill="#FFFFFF" stroke="#E2E2E5"/>
<rect x="36" y="132" width="735" height="56" rx="8" fill="#FAFAFA"/>
<text x="48.0" y="160.0" font-size="13" font-weight="700" fill="#1A1A1A" text-anchor="start" dominant-baseline="middle">Label</text>
<text x="253.5" y="160.0" font-size="13" font-weight="700" fill="#1A1A1A" text-anchor="middle" dominant-baseline="middle">TTK</text>
<text x="348.5" y="160.0" font-size="13" font-weight="700" fill="#1A1A1A" text-anchor="middle" dominant-baseline="middle">Cyber</text>
<text x="458.5" y="160.0" font-size="13" font-weight="700" fill="#1A1A1A" text-anchor="middle" dominant-baseline="middle">ΔF1</text>
<text x="583.5" y="160.0" font-size="13" font-weight="700" fill="#1A1A1A" text-anchor="middle" dominant-baseline="middle">ΔPrécision</text>
<text x="708.5" y="160.0" font-size="13" font-weight="700" fill="#1A1A1A" text-anchor="middle" dominant-baseline="middle">ΔRappel</text>
<line x1="36" y1="188" x2="771" y2="188" stroke="#E2E2E5"/>
<text x="48.0" y="204.0" font-size="13" font-weight="600" fill="#1A1A1A" text-anchor="start" dominant-baseline="middle">Émo</text>
<text x="253.5" y="204.0" font-size="13" font-weight="400" fill="#71717A" text-anchor="middle" dominant-baseline="middle">5 374</text>
<text x="348.5" y="204.0" font-size="13" font-weight="400" fill="#71717A" text-anchor="middle" dominant-baseline="middle">399</text>
<rect x="396" y="188" width="125" height="32" fill="#C7EA97"/>
<text x="458.5" y="204.0" font-size="13" font-weight="700" fill="#1A1A1A" text-anchor="middle" dominant-baseline="middle">+0.27</text>
<rect x="521" y="188" width="125" height="32" fill="#CFEB8F"/>
<text x="583.5" y="204.0" font-size="13" font-weight="700" fill="#1A1A1A" text-anchor="middle" dominant-baseline="middle">+0.31</text>
<rect x="646" y="188" width="125" height="32" fill="#C0EAA1"/>
<text x="708.5" y="204.0" font-size="13" font-weight="700" fill="#1A1A1A" text-anchor="middle" dominant-baseline="middle">+0.23</text>
<line x1="36" y1="220" x2="771" y2="220" stroke="#E2E2E5"/>
<text x="48.0" y="236.0" font-size="13" font-weight="600" fill="#1A1A1A" text-anchor="start" dominant-baseline="middle">Base</text>
<text x="253.5" y="236.0" font-size="13" font-weight="400" fill="#71717A" text-anchor="middle" dominant-baseline="middle">4 133</text>
<text x="348.5" y="236.0" font-size="13" font-weight="400" fill="#71717A" text-anchor="middle" dominant-baseline="middle">364</text>
<rect x="396" y="220" width="125" height="32" fill="#E6EC7E"/>
<text x="458.5" y="236.0" font-size="13" font-weight="700" fill="#1A1A1A" text-anchor="middle" dominant-baseline="middle">+0.37</text>
<rect x="521" y="220" width="125" height="32" fill="#CBEA92"/>
<text x="583.5" y="236.0" font-size="13" font-weight="700" fill="#1A1A1A" text-anchor="middle" dominant-baseline="middle">+0.29</text>
<rect x="646" y="220" width="125" height="32" fill="#EEDA6E"/>
<text x="708.5" y="236.0" font-size="13" font-weight="700" fill="#1A1A1A" text-anchor="middle" dominant-baseline="middle">+0.43</text>
<line x1="36" y1="252" x2="771" y2="252" stroke="#E2E2E5"/>
<text x="48.0" y="268.0" font-size="13" font-weight="600" fill="#1A1A1A" text-anchor="start" dominant-baseline="middle">Montrée</text>
<text x="253.5" y="268.0" font-size="13" font-weight="400" fill="#71717A" text-anchor="middle" dominant-baseline="middle">971</text>
<text x="348.5" y="268.0" font-size="13" font-weight="400" fill="#71717A" text-anchor="middle" dominant-baseline="middle">301</text>
<rect x="396" y="252" width="125" height="32" fill="#EEE172"/>
<text x="458.5" y="268.0" font-size="13" font-weight="700" fill="#1A1A1A" text-anchor="middle" dominant-baseline="middle">+0.42</text>
<rect x="521" y="252" width="125" height="32" fill="#EEDF71"/>
<text x="583.5" y="268.0" font-size="13" font-weight="700" fill="#1A1A1A" text-anchor="middle" dominant-baseline="middle">+0.42</text>
<rect x="646" y="252" width="125" height="32" fill="#EEE373"/>
<text x="708.5" y="268.0" font-size="13" font-weight="700" fill="#1A1A1A" text-anchor="middle" dominant-baseline="middle">+0.41</text>
<line x1="36" y1="284" x2="771" y2="284" stroke="#E2E2E5"/>
<text x="48.0" y="300.0" font-size="13" font-weight="600" fill="#1A1A1A" text-anchor="start" dominant-baseline="middle">Colère</text>
<text x="253.5" y="300.0" font-size="13" font-weight="400" fill="#71717A" text-anchor="middle" dominant-baseline="middle">1 180</text>
<text x="348.5" y="300.0" font-size="13" font-weight="400" fill="#71717A" text-anchor="middle" dominant-baseline="middle">290</text>
<rect x="396" y="284" width="125" height="32" fill="#EFCD67"/>
<text x="458.5" y="300.0" font-size="13" font-weight="700" fill="#1A1A1A" text-anchor="middle" dominant-baseline="middle">+0.46</text>
<rect x="521" y="284" width="125" height="32" fill="#EEDF71"/>
<text x="583.5" y="300.0" font-size="13" font-weight="700" fill="#1A1A1A" text-anchor="middle" dominant-baseline="middle">+0.42</text>
<rect x="646" y="284" width="125" height="32" fill="#F1BB5E"/>
<text x="708.5" y="300.0" font-size="13" font-weight="700" fill="#1A1A1A" text-anchor="middle" dominant-baseline="middle">+0.49</text>
<line x1="36" y1="316" x2="771" y2="316" stroke="#E2E2E5"/>
<text x="48.0" y="332.0" font-size="13" font-weight="600" fill="#1A1A1A" text-anchor="start" dominant-baseline="middle">Dégoût</text>
<text x="253.5" y="332.0" font-size="13" font-weight="400" fill="#71717A" text-anchor="middle" dominant-baseline="middle">52</text>
<text x="348.5" y="332.0" font-size="13" font-weight="400" fill="#71717A" text-anchor="middle" dominant-baseline="middle">80</text>
<rect x="396" y="316" width="125" height="32" fill="#BBEAB5"/>
<text x="458.5" y="332.0" font-size="13" font-weight="700" fill="#1A1A1A" text-anchor="middle" dominant-baseline="middle">+0.14</text>
<rect x="521" y="316" width="125" height="32" fill="#B62020"/>
<text x="583.5" y="332.0" font-size="13" font-weight="700" fill="#FFFFFF" text-anchor="middle" dominant-baseline="middle">+1.00</text>
<rect x="646" y="316" width="125" height="32" fill="#C3ECC9"/>
<text x="708.5" y="332.0" font-size="13" font-weight="700" fill="#1A1A1A" text-anchor="middle" dominant-baseline="middle">+0.08</text>
<line x1="36" y1="348" x2="771" y2="348" stroke="#E2E2E5"/>
<text x="48.0" y="364.0" font-size="13" font-weight="600" fill="#1A1A1A" text-anchor="start" dominant-baseline="middle">Autre</text>
<text x="253.5" y="364.0" font-size="13" font-weight="400" fill="#71717A" text-anchor="middle" dominant-baseline="middle">1 270</text>
<text x="348.5" y="364.0" font-size="13" font-weight="400" fill="#71717A" text-anchor="middle" dominant-baseline="middle">62</text>
<rect x="396" y="348" width="125" height="32" fill="#E4602C"/>
<text x="458.5" y="364.0" font-size="13" font-weight="700" fill="#FFFFFF" text-anchor="middle" dominant-baseline="middle">+0.76</text>
<rect x="521" y="348" width="125" height="32" fill="#E25727"/>
<text x="583.5" y="364.0" font-size="13" font-weight="700" fill="#FFFFFF" text-anchor="middle" dominant-baseline="middle">+0.78</text>
<rect x="646" y="348" width="125" height="32" fill="#E97B39"/>
<text x="708.5" y="364.0" font-size="13" font-weight="700" fill="#1A1A1A" text-anchor="middle" dominant-baseline="middle">+0.68</text>
<line x1="36" y1="380" x2="771" y2="380" stroke="#E2E2E5"/>
<text x="48.0" y="396.0" font-size="13" font-weight="600" fill="#1A1A1A" text-anchor="start" dominant-baseline="middle">Désignée</text>
<text x="253.5" y="396.0" font-size="13" font-weight="400" fill="#71717A" text-anchor="middle" dominant-baseline="middle">1 499</text>
<text x="348.5" y="396.0" font-size="13" font-weight="400" fill="#71717A" text-anchor="middle" dominant-baseline="middle">55</text>
<rect x="396" y="380" width="125" height="32" fill="#EFA24F"/>
<text x="458.5" y="396.0" font-size="13" font-weight="700" fill="#1A1A1A" text-anchor="middle" dominant-baseline="middle">+0.56</text>
<rect x="521" y="380" width="125" height="32" fill="#F1B55B"/>
<text x="583.5" y="396.0" font-size="13" font-weight="700" fill="#1A1A1A" text-anchor="middle" dominant-baseline="middle">+0.50</text>
<rect x="646" y="380" width="125" height="32" fill="#ED9447"/>
<text x="708.5" y="396.0" font-size="13" font-weight="700" fill="#1A1A1A" text-anchor="middle" dominant-baseline="middle">+0.60</text>
<line x1="36" y1="412" x2="771" y2="412" stroke="#E2E2E5"/>
<text x="48.0" y="428.0" font-size="13" font-weight="600" fill="#1A1A1A" text-anchor="start" dominant-baseline="middle">Suggérée</text>
<text x="253.5" y="428.0" font-size="13" font-weight="400" fill="#71717A" text-anchor="middle" dominant-baseline="middle">1 909</text>
<text x="348.5" y="428.0" font-size="13" font-weight="400" fill="#71717A" text-anchor="middle" dominant-baseline="middle">54</text>
<rect x="396" y="412" width="125" height="32" fill="#E5682F"/>
<text x="458.5" y="428.0" font-size="13" font-weight="700" fill="#1A1A1A" text-anchor="middle" dominant-baseline="middle">+0.73</text>
<rect x="521" y="412" width="125" height="32" fill="#E97C3A"/>
<text x="583.5" y="428.0" font-size="13" font-weight="700" fill="#1A1A1A" text-anchor="middle" dominant-baseline="middle">+0.67</text>
<rect x="646" y="412" width="125" height="32" fill="#E5642D"/>
<text x="708.5" y="428.0" font-size="13" font-weight="700" fill="#1A1A1A" text-anchor="middle" dominant-baseline="middle">+0.74</text>
<line x1="36" y1="444" x2="771" y2="444" stroke="#E2E2E5"/>
<text x="48.0" y="460.0" font-size="13" font-weight="600" fill="#1A1A1A" text-anchor="start" dominant-baseline="middle">Comportementale</text>
<text x="253.5" y="460.0" font-size="13" font-weight="400" fill="#71717A" text-anchor="middle" dominant-baseline="middle">1 242</text>
<text x="348.5" y="460.0" font-size="13" font-weight="400" fill="#71717A" text-anchor="middle" dominant-baseline="middle">36</text>
<rect x="396" y="444" width="125" height="32" fill="#E77134"/>
<text x="458.5" y="460.0" font-size="13" font-weight="700" fill="#1A1A1A" text-anchor="middle" dominant-baseline="middle">+0.71</text>
<rect x="521" y="444" width="125" height="32" fill="#EC9044"/>
<text x="583.5" y="460.0" font-size="13" font-weight="700" fill="#1A1A1A" text-anchor="middle" dominant-baseline="middle">+0.62</text>
<rect x="646" y="444" width="125" height="32" fill="#E4602C"/>
<text x="708.5" y="460.0" font-size="13" font-weight="700" fill="#FFFFFF" text-anchor="middle" dominant-baseline="middle">+0.76</text>
<line x1="36" y1="476" x2="771" y2="476" stroke="#E2E2E5"/>
<text x="48.0" y="492.0" font-size="13" font-weight="600" fill="#1A1A1A" text-anchor="start" dominant-baseline="middle">Joie</text>
<text x="253.5" y="492.0" font-size="13" font-weight="400" fill="#71717A" text-anchor="middle" dominant-baseline="middle">888</text>
<text x="348.5" y="492.0" font-size="13" font-weight="400" fill="#71717A" text-anchor="middle" dominant-baseline="middle">30</text>
<rect x="396" y="476" width="125" height="32" fill="#F1BA5D"/>
<text x="458.5" y="492.0" font-size="13" font-weight="700" fill="#1A1A1A" text-anchor="middle" dominant-baseline="middle">+0.49</text>
<rect x="521" y="476" width="125" height="32" fill="#F1B95D"/>
<text x="583.5" y="492.0" font-size="13" font-weight="700" fill="#1A1A1A" text-anchor="middle" dominant-baseline="middle">+0.49</text>
<rect x="646" y="476" width="125" height="32" fill="#F1BB5E"/>
<text x="708.5" y="492.0" font-size="13" font-weight="700" fill="#1A1A1A" text-anchor="middle" dominant-baseline="middle">+0.49</text>
<line x1="36" y1="508" x2="771" y2="508" stroke="#E2E2E5"/>
<text x="48.0" y="524.0" font-size="13" font-weight="600" fill="#1A1A1A" text-anchor="start" dominant-baseline="middle">Complexe</text>
<text x="253.5" y="524.0" font-size="13" font-weight="400" fill="#71717A" text-anchor="middle" dominant-baseline="middle">568</text>
<text x="348.5" y="524.0" font-size="13" font-weight="400" fill="#71717A" text-anchor="middle" dominant-baseline="middle">14</text>
<rect x="396" y="508" width="125" height="32" fill="#EFA451"/>
<text x="458.5" y="524.0" font-size="13" font-weight="700" fill="#1A1A1A" text-anchor="middle" dominant-baseline="middle">+0.55</text>
<rect x="521" y="508" width="125" height="32" fill="#E87637"/>
<text x="583.5" y="524.0" font-size="13" font-weight="700" fill="#1A1A1A" text-anchor="middle" dominant-baseline="middle">+0.69</text>
<rect x="646" y="508" width="125" height="32" fill="#CDEB90"/>
<text x="708.5" y="524.0" font-size="13" font-weight="700" fill="#1A1A1A" text-anchor="middle" dominant-baseline="middle">+0.30</text>
<line x1="36" y1="540" x2="771" y2="540" stroke="#E2E2E5"/>
<text x="48.0" y="556.0" font-size="13" font-weight="600" fill="#1A1A1A" text-anchor="start" dominant-baseline="middle">Tristesse</text>
<text x="253.5" y="556.0" font-size="13" font-weight="400" fill="#71717A" text-anchor="middle" dominant-baseline="middle">673</text>
<text x="348.5" y="556.0" font-size="13" font-weight="400" fill="#71717A" text-anchor="middle" dominant-baseline="middle">14</text>
<rect x="396" y="540" width="125" height="32" fill="#E87737"/>
<text x="458.5" y="556.0" font-size="13" font-weight="700" fill="#1A1A1A" text-anchor="middle" dominant-baseline="middle">+0.69</text>
<rect x="521" y="540" width="125" height="32" fill="#E4622D"/>
<text x="583.5" y="556.0" font-size="13" font-weight="700" fill="#1A1A1A" text-anchor="middle" dominant-baseline="middle">+0.75</text>
<rect x="646" y="540" width="125" height="32" fill="#ED9347"/>
<text x="708.5" y="556.0" font-size="13" font-weight="700" fill="#1A1A1A" text-anchor="middle" dominant-baseline="middle">+0.60</text>
<line x1="36" y1="572" x2="771" y2="572" stroke="#E2E2E5"/>
<text x="48.0" y="588.0" font-size="13" font-weight="600" fill="#1A1A1A" text-anchor="start" dominant-baseline="middle">Jalousie</text>
<text x="253.5" y="588.0" font-size="13" font-weight="400" fill="#71717A" text-anchor="middle" dominant-baseline="middle">7</text>
<text x="348.5" y="588.0" font-size="13" font-weight="400" fill="#71717A" text-anchor="middle" dominant-baseline="middle">6</text>
<rect x="396" y="572" width="125" height="32" fill="#D3EEDE"/>
<text x="458.5" y="588.0" font-size="13" font-weight="700" fill="#1A1A1A" text-anchor="middle" dominant-baseline="middle">0.00</text>
<rect x="521" y="572" width="125" height="32" fill="#D3EEDE"/>
<text x="583.5" y="588.0" font-size="13" font-weight="700" fill="#1A1A1A" text-anchor="middle" dominant-baseline="middle">0.00</text>
<rect x="646" y="572" width="125" height="32" fill="#D3EEDE"/>
<text x="708.5" y="588.0" font-size="13" font-weight="700" fill="#1A1A1A" text-anchor="middle" dominant-baseline="middle">0.00</text>
<line x1="36" y1="604" x2="771" y2="604" stroke="#E2E2E5"/>
<text x="48.0" y="620.0" font-size="13" font-weight="600" fill="#1A1A1A" text-anchor="start" dominant-baseline="middle">Surprise</text>
<text x="253.5" y="620.0" font-size="13" font-weight="400" fill="#71717A" text-anchor="middle" dominant-baseline="middle">824</text>
<text x="348.5" y="620.0" font-size="13" font-weight="400" fill="#71717A" text-anchor="middle" dominant-baseline="middle">5</text>
<rect x="396" y="604" width="125" height="32" fill="#F0A853"/>
<text x="458.5" y="620.0" font-size="13" font-weight="700" fill="#1A1A1A" text-anchor="middle" dominant-baseline="middle">+0.54</text>
<rect x="521" y="604" width="125" height="32" fill="#EE9B4B"/>
<text x="583.5" y="620.0" font-size="13" font-weight="700" fill="#1A1A1A" text-anchor="middle" dominant-baseline="middle">+0.58</text>
<rect x="646" y="604" width="125" height="32" fill="#F1BB5E"/>
<text x="708.5" y="620.0" font-size="13" font-weight="700" fill="#1A1A1A" text-anchor="middle" dominant-baseline="middle">+0.49</text>
<line x1="36" y1="636" x2="771" y2="636" stroke="#E2E2E5"/>
<text x="48.0" y="652.0" font-size="13" font-weight="600" fill="#1A1A1A" text-anchor="start" dominant-baseline="middle">Peur</text>
<text x="253.5" y="652.0" font-size="13" font-weight="400" fill="#71717A" text-anchor="middle" dominant-baseline="middle">1 047</text>
<text x="348.5" y="652.0" font-size="13" font-weight="400" fill="#71717A" text-anchor="middle" dominant-baseline="middle">4</text>
<rect x="396" y="636" width="125" height="32" fill="#EA833D"/>
<text x="458.5" y="652.0" font-size="13" font-weight="700" fill="#1A1A1A" text-anchor="middle" dominant-baseline="middle">+0.66</text>
<rect x="521" y="636" width="125" height="32" fill="#E5662E"/>
<text x="583.5" y="652.0" font-size="13" font-weight="700" fill="#1A1A1A" text-anchor="middle" dominant-baseline="middle">+0.74</text>
<rect x="646" y="636" width="125" height="32" fill="#EDED79"/>
<text x="708.5" y="652.0" font-size="13" font-weight="700" fill="#1A1A1A" text-anchor="middle" dominant-baseline="middle">+0.39</text>
<line x1="36" y1="668" x2="771" y2="668" stroke="#E2E2E5"/>
<text x="48.0" y="684.0" font-size="13" font-weight="600" fill="#1A1A1A" text-anchor="start" dominant-baseline="middle">Culpabilité</text>
<text x="253.5" y="684.0" font-size="13" font-weight="400" fill="#71717A" text-anchor="middle" dominant-baseline="middle">19</text>
<text x="348.5" y="684.0" font-size="13" font-weight="400" fill="#71717A" text-anchor="middle" dominant-baseline="middle">3</text>
<rect x="396" y="668" width="125" height="32" fill="#D3EEDE"/>
<text x="458.5" y="684.0" font-size="13" font-weight="700" fill="#1A1A1A" text-anchor="middle" dominant-baseline="middle">0.00</text>
<rect x="521" y="668" width="125" height="32" fill="#D3EEDE"/>
<text x="583.5" y="684.0" font-size="13" font-weight="700" fill="#1A1A1A" text-anchor="middle" dominant-baseline="middle">0.00</text>
<rect x="646" y="668" width="125" height="32" fill="#D3EEDE"/>
<text x="708.5" y="684.0" font-size="13" font-weight="700" fill="#1A1A1A" text-anchor="middle" dominant-baseline="middle">0.00</text>
<line x1="36" y1="700" x2="771" y2="700" stroke="#E2E2E5"/>
<text x="48.0" y="716.0" font-size="13" font-weight="600" fill="#1A1A1A" text-anchor="start" dominant-baseline="middle">Fierté</text>
<text x="253.5" y="716.0" font-size="13" font-weight="400" fill="#71717A" text-anchor="middle" dominant-baseline="middle">202</text>
<text x="348.5" y="716.0" font-size="13" font-weight="400" fill="#71717A" text-anchor="middle" dominant-baseline="middle">3</text>
<rect x="396" y="700" width="125" height="32" fill="#C9ECD1"/>
<text x="458.5" y="716.0" font-size="13" font-weight="700" fill="#1A1A1A" text-anchor="middle" dominant-baseline="middle">-0.05</text>
<rect x="521" y="700" width="125" height="32" fill="#C0EBC4"/>
<text x="583.5" y="716.0" font-size="13" font-weight="700" fill="#1A1A1A" text-anchor="middle" dominant-baseline="middle">+0.09</text>
<rect x="646" y="700" width="125" height="32" fill="#BFEAA3"/>
<text x="708.5" y="716.0" font-size="13" font-weight="700" fill="#1A1A1A" text-anchor="middle" dominant-baseline="middle">-0.22</text>
<line x1="36" y1="732" x2="771" y2="732" stroke="#E2E2E5"/>
<text x="48.0" y="748.0" font-size="13" font-weight="600" fill="#1A1A1A" text-anchor="start" dominant-baseline="middle">Embarras</text>
<text x="253.5" y="748.0" font-size="13" font-weight="400" fill="#71717A" text-anchor="middle" dominant-baseline="middle">162</text>
<text x="348.5" y="748.0" font-size="13" font-weight="400" fill="#71717A" text-anchor="middle" dominant-baseline="middle">2</text>
<rect x="396" y="732" width="125" height="32" fill="#E9803C"/>
<text x="458.5" y="748.0" font-size="13" font-weight="700" fill="#1A1A1A" text-anchor="middle" dominant-baseline="middle">+0.66</text>
<rect x="521" y="732" width="125" height="32" fill="#E4632D"/>
<text x="583.5" y="748.0" font-size="13" font-weight="700" fill="#1A1A1A" text-anchor="middle" dominant-baseline="middle">+0.75</text>
<rect x="646" y="732" width="125" height="32" fill="#BFEAA3"/>
<text x="708.5" y="748.0" font-size="13" font-weight="700" fill="#1A1A1A" text-anchor="middle" dominant-baseline="middle">-0.22</text>
<line x1="36" y1="764" x2="771" y2="764" stroke="#E2E2E5"/>
<text x="48.0" y="780.0" font-size="13" font-weight="600" fill="#1A1A1A" text-anchor="start" dominant-baseline="middle">Admiration</text>
<text x="253.5" y="780.0" font-size="13" font-weight="400" fill="#71717A" text-anchor="middle" dominant-baseline="middle">211</text>
<text x="348.5" y="780.0" font-size="13" font-weight="400" fill="#71717A" text-anchor="middle" dominant-baseline="middle">0</text>
<rect x="396" y="764" width="125" height="32" fill="#E5632D"/>
<text x="458.5" y="780.0" font-size="13" font-weight="700" fill="#1A1A1A" text-anchor="middle" dominant-baseline="middle">+0.75</text>
<rect x="521" y="764" width="125" height="32" fill="#D93F20"/>
<text x="583.5" y="780.0" font-size="13" font-weight="700" fill="#FFFFFF" text-anchor="middle" dominant-baseline="middle">+0.85</text>
<rect x="646" y="764" width="125" height="32" fill="#E9803C"/>
<text x="708.5" y="780.0" font-size="13" font-weight="700" fill="#1A1A1A" text-anchor="middle" dominant-baseline="middle">+0.66</text>
<rect x="36" y="796" width="735" height="32" fill="#3B3B3F"/>
<text x="48.0" y="812.0" font-size="13" font-weight="700" fill="#FFFFFF" text-anchor="start" dominant-baseline="middle">Métriques globales</text>
<line x1="36" y1="828" x2="771" y2="828" stroke="#E2E2E5"/>
<text x="48.0" y="844.0" font-size="13" font-weight="600" fill="#1A1A1A" text-anchor="start" dominant-baseline="middle">Macro F1</text>
<text x="253.5" y="844.0" font-size="13" font-weight="400" fill="#71717A" text-anchor="middle" dominant-baseline="middle">27 911</text>
<text x="348.5" y="844.0" font-size="13" font-weight="400" fill="#71717A" text-anchor="middle" dominant-baseline="middle">781</text>
<rect x="396" y="828" width="125" height="32" fill="#EFCC66"/>
<text x="458.5" y="844.0" font-size="13" font-weight="700" fill="#1A1A1A" text-anchor="middle" dominant-baseline="middle">+0.4570</text>
<line x1="36" y1="860" x2="771" y2="860" stroke="#E2E2E5"/>
<text x="48.0" y="876.0" font-size="13" font-weight="600" fill="#1A1A1A" text-anchor="start" dominant-baseline="middle">Micro F1</text>
<text x="253.5" y="876.0" font-size="13" font-weight="400" fill="#71717A" text-anchor="middle" dominant-baseline="middle">27 911</text>
<text x="348.5" y="876.0" font-size="13" font-weight="400" fill="#71717A" text-anchor="middle" dominant-baseline="middle">781</text>
<rect x="396" y="860" width="125" height="32" fill="#EEDC6F"/>
<text x="458.5" y="876.0" font-size="13" font-weight="700" fill="#1A1A1A" text-anchor="middle" dominant-baseline="middle">+0.4246</text>
<text x="36.0" y="930.0" font-size="13" font-weight="700" fill="#71717A" text-anchor="start" dominant-baseline="middle">Delta</text>
<text x="98.0" y="930.0" font-size="13" font-weight="400" fill="#71717A" text-anchor="start" dominant-baseline="middle">0.00</text>
<rect x="141" y="922" width="220" height="16" rx="3" fill="url(#deltaGradient)" stroke="#E2E2E5"/>
<text x="381.0" y="930.0" font-size="13" font-weight="400" fill="#71717A" text-anchor="start" dominant-baseline="middle">1.00</text>
<text x="36.0" y="962.0" font-size="12" font-weight="400" fill="#71717A" text-anchor="start" dominant-baseline="middle">Valeur positive : TextToKids meilleur ; valeur négative : CyberAggAdo meilleur.</text>
</svg>